<svg width="39" height="33" viewBox="0 0 39 33" fill="none" xmlns="http://www.w3.org/2000/svg">
<path d="M34.4297 0.12297C32.5122 0.63656 31.3055 2.65779 31.7849 4.51334C31.851 4.74528 31.884 4.96066 31.851 4.97723C31.7022 5.10977 27.3382 8.10847 27.2555 8.14161C27.1894 8.17474 26.9745 8.07534 26.7761 7.9428C26.2968 7.61145 25.6521 7.39607 25.0239 7.36294C23.9495 7.2801 22.9907 7.66115 22.1807 8.47295L21.6848 8.95341L19.8169 8.30728L17.9489 7.66115L17.8497 7.03159C17.6514 5.68963 17.1059 4.81155 16.0479 4.18199C15.5685 3.90034 14.7751 3.68497 14.2131 3.68497C12.6427 3.68497 11.2045 4.76185 10.7417 6.26949C10.5598 6.84935 10.5433 7.77712 10.6921 8.27415L10.7913 8.62206L8.44395 10.2788L6.09663 11.919L5.71644 11.6705C3.60055 10.2457 0.757321 11.3391 0.112636 13.8242C-0.56511 16.4253 1.93098 18.9104 4.50972 18.2312C6.4603 17.7341 7.68355 15.7129 7.20417 13.8574L7.10499 13.4598L7.33641 13.2775C7.88192 12.8799 11.7004 10.2291 11.7831 10.196C11.8327 10.1794 12.031 10.2788 12.2294 10.3948C13.6345 11.3723 15.5851 11.1403 16.8249 9.88119L17.3042 9.38416L19.1722 10.0303L21.0566 10.6764L21.1393 11.3226C21.2881 12.3994 21.6352 13.0953 22.3295 13.7248C24.3131 15.5141 27.487 14.6195 28.2804 12.0681C28.4292 11.5545 28.4457 11.2066 28.33 9.91432C28.3135 9.69894 28.4292 9.61611 30.6277 8.07534L32.942 6.4683L33.3056 6.71681C35.405 8.14161 38.2482 7.03159 38.8929 4.56304C39.5541 1.91225 37.0415 -0.58943 34.4297 0.12297ZM35.9009 1.92882C36.5621 2.12763 37.1738 2.97257 37.1738 3.6684C37.1738 4.61274 36.2976 5.50738 35.3389 5.50738C34.8595 5.50738 34.4628 5.32514 34.0826 4.92752C33.3056 4.14886 33.3056 3.17138 34.0826 2.40928C34.6115 1.86255 35.1901 1.71344 35.9009 1.92882ZM15.0892 5.73933C15.519 5.97127 15.8826 6.4683 15.9818 6.96532C16.1636 7.72742 15.7504 8.57236 15.0396 8.93684C14.7916 9.06938 14.5767 9.10252 14.18 9.11908C13.7171 9.11908 13.6014 9.08595 13.2708 8.88714C11.9815 8.07534 12.1633 6.13695 13.6014 5.59022C13.9982 5.45768 14.6759 5.50738 15.0892 5.73933ZM25.7182 9.45043C25.9331 9.58297 26.1645 9.81492 26.2968 10.0303C26.4951 10.3616 26.5282 10.4776 26.5282 10.9912C26.5282 11.5048 26.5117 11.6208 26.2968 11.9521C25.9827 12.4657 25.5033 12.7474 24.8752 12.7971C24.4619 12.8302 24.3462 12.7971 23.9825 12.6148C22.4782 11.8361 22.6601 9.76521 24.2801 9.21849C24.6603 9.10252 25.3545 9.20192 25.7182 9.45043ZM4.19564 12.913C4.6089 13.029 5.25358 13.6751 5.3693 14.0893C5.58419 14.8017 5.43542 15.3816 4.88992 15.9117C4.11299 16.6904 3.1377 16.6904 2.3773 15.9117C1.60037 15.1331 1.60037 14.1556 2.3773 13.3935C2.90627 12.8633 3.48483 12.7142 4.19564 12.913Z" fill="#858585"/>
<path d="M32.3965 11.1072C32.0824 11.2398 31.7683 11.6374 31.7188 11.9356C31.7022 12.0681 31.6857 16.6904 31.7022 22.2074C31.7188 32.1976 31.7188 32.2307 31.8841 32.4295C31.9667 32.5455 32.132 32.7111 32.2477 32.794C32.4461 32.9431 32.5453 32.9597 35.3389 32.9597C38.1325 32.9597 38.2317 32.9597 38.4301 32.794C38.5458 32.7111 38.7111 32.5455 38.7938 32.4295C38.9591 32.2307 38.9591 32.1976 38.9591 21.992C38.9591 11.7865 38.9591 11.7699 38.7938 11.5545C38.7111 11.4386 38.5458 11.2729 38.4301 11.1901C38.2317 11.0409 38.116 11.0244 35.4216 11.0078C33.223 11.0078 32.5783 11.0244 32.3965 11.1072Z" fill="#858585"/>
<path d="M11.3368 14.752C11.2376 14.8017 11.0558 14.9011 10.9731 15.0005C10.5599 15.3982 10.5764 14.9343 10.5764 23.8641V32.1478L10.7582 32.3963C10.8574 32.5289 11.0227 32.7277 11.1384 32.8105C11.3368 32.9596 11.4525 32.9762 14.1304 32.9928C16.7753 33.0093 16.9241 33.0093 17.2051 32.8602C17.3704 32.7774 17.5853 32.5786 17.6845 32.4129L17.8663 32.1147V23.831V15.5473L17.6845 15.249C17.5853 15.0834 17.3869 14.9011 17.2051 14.8183C16.9241 14.6692 16.7587 14.6692 14.2296 14.6692C12.6096 14.6692 11.4525 14.7023 11.3368 14.752Z" fill="#858585"/>
<path d="M21.7509 18.4962C21.5856 18.5957 21.3707 18.7945 21.288 18.9436C21.1227 19.2086 21.1227 19.2915 21.1227 25.6699C21.1227 32.0484 21.1227 32.1312 21.288 32.3963C21.3707 32.5454 21.5856 32.7442 21.7509 32.8436C22.0484 33.0093 22.065 33.0093 24.8421 32.9927C27.5365 32.9762 27.6522 32.9596 27.8506 32.8105C27.9663 32.7277 28.1482 32.5289 28.2473 32.3963L28.4126 32.1478V25.6865V19.2252L28.2473 18.9767C28.1482 18.8442 27.9663 18.6454 27.8506 18.5625C27.6522 18.4134 27.5365 18.3968 24.8421 18.3803C22.0484 18.3306 22.0319 18.3306 21.7509 18.4962Z" fill="#858585"/>
<path d="M0.707715 22.0913C0.393638 22.2239 0.0795605 22.6215 0.0299693 22.9197C0.013439 23.0523 -0.00309149 25.1895 0.0134389 27.6911C0.0299693 32.1146 0.0299693 32.2141 0.195273 32.4129C0.277925 32.5288 0.443229 32.6945 0.558942 32.7773C0.757306 32.9264 0.856489 32.943 3.65012 32.943C6.44376 32.943 6.54294 32.943 6.74131 32.7773C6.85702 32.6945 7.02232 32.5288 7.10497 32.4129C7.27028 32.2141 7.27028 32.1312 7.27028 27.4758C7.27028 22.8203 7.27028 22.754 7.10497 22.5387C7.02232 22.4227 6.85702 22.257 6.74131 22.1742C6.54294 22.0251 6.42723 22.0085 3.73277 21.9919C1.5177 21.9919 0.889549 22.0085 0.707715 22.0913Z" fill="#858585"/>
</svg>
