<?xml version="1.0" standalone="no"?>
<!DOCTYPE svg PUBLIC "-//W3C//DTD SVG 20010904//EN"
 "http://www.w3.org/TR/2001/REC-SVG-20010904/DTD/svg10.dtd">
<svg version="1.0" xmlns="http://www.w3.org/2000/svg"
 width="200.000000pt" height="200.000000pt" viewBox="0 0 200.000000 200.000000"
 preserveAspectRatio="xMidYMid meet">

<g transform="translate(0.000000,200.000000) scale(0.100000,-0.100000)"
fill="#000000" stroke="none">
<path d="M491 1627 c-13 -6 -34 -25 -45 -40 -21 -28 -21 -35 -21 -596 0 -619
-1 -607 57 -637 21 -11 86 -14 309 -14 l283 0 -34 35 -34 35 -234 0 c-142 0
-241 4 -253 10 -18 10 -19 27 -19 570 0 645 -12 583 112 578 l72 -3 21 -100
c36 -173 39 -175 270 -175 231 0 233 1 270 175 l21 100 78 3 c49 2 83 -1 92
-9 11 -9 14 -62 14 -284 l0 -272 40 -16 40 -15 0 276 c0 164 -4 293 -11 315
-7 26 -21 44 -42 57 -30 19 -54 20 -497 20 -349 0 -471 -3 -489 -13z m699 -69
c0 -11 -8 -46 -35 -165 -5 -23 -7 -23 -175 -23 -124 0 -171 3 -177 13 -11 16
-41 176 -35 182 3 3 99 5 214 5 160 0 208 -3 208 -12z"/>
<path d="M640 1080 l0 -31 103 3 102 3 3 28 3 27 -105 0 -106 0 0 -30z"/>
<path d="M640 980 l0 -30 165 0 165 0 0 30 0 30 -165 0 -165 0 0 -30z"/>
<path d="M1174 896 c-3 -8 20 -49 50 -91 39 -54 56 -88 56 -109 0 -24 22 -59
95 -151 52 -66 94 -126 95 -132 1 -33 -26 -3 -110 121 -74 110 -96 135 -117
138 -21 2 -40 21 -81 78 -51 72 -74 91 -86 72 -10 -17 112 -172 144 -184 22
-7 51 -42 115 -138 47 -71 94 -131 105 -135 10 -3 28 -1 40 5 40 21 25 58 -73
188 -75 98 -93 129 -90 150 3 20 -10 47 -54 109 -60 85 -80 103 -89 79z"/>
<path d="M1470 899 c-70 -28 -123 -114 -118 -192 4 -65 21 -64 29 2 8 62 35
109 79 138 43 30 68 29 82 -2 24 -53 -35 -149 -106 -172 -31 -10 -55 -37 -44
-49 4 -4 23 1 42 10 19 9 38 16 43 16 17 0 82 75 98 114 21 50 13 99 -22 126
-28 22 -45 24 -83 9z"/>
<path d="M1125 860 c-9 -15 87 -149 108 -150 9 0 17 3 17 7 0 4 -21 40 -47 80
-46 69 -65 85 -78 63z"/>
<path d="M1211 498 c-55 -69 -62 -95 -31 -123 30 -28 62 -12 103 50 63 95 38
123 -26 30 -21 -30 -42 -55 -48 -55 -19 0 -8 30 31 79 39 49 51 81 30 81 -5 0
-32 -28 -59 -62z"/>
</g>
</svg>
