<svg width="39" height="33" viewBox="0 0 39 33" fill="none" xmlns="http://www.w3.org/2000/svg">
<path d="M29.0063 21.9599L33.7789 3.2729H39V0.335571H31.4974L30.3724 4.74071L0 4.71898L3.22904 21.9598H29.0063V21.9599ZM29.6224 7.67752L26.7249 19.0225H5.66728L3.53897 7.65886L29.6224 7.67752Z" fill="#858585"/>
<path d="M24.9854 32.6644C27.5754 32.6644 29.6826 30.5572 29.6826 27.9671C29.6826 25.377 27.5754 23.2699 24.9854 23.2699H7.28789C4.69781 23.2699 2.59058 25.377 2.59058 27.9671C2.59058 30.5572 4.69777 32.6644 7.28789 32.6644C9.87801 32.6644 11.9852 30.5572 11.9852 27.9671C11.9852 27.3451 11.8633 26.7511 11.6427 26.2072H20.6305C20.4099 26.7511 20.288 27.3451 20.288 27.9671C20.2881 30.5572 22.3953 32.6644 24.9854 32.6644ZM9.04783 27.9671C9.04783 28.9376 8.25833 29.7271 7.28789 29.7271C6.31745 29.7271 5.52791 28.9376 5.52791 27.9671C5.52791 26.9967 6.3174 26.2072 7.28789 26.2072C8.25833 26.2072 9.04783 26.9967 9.04783 27.9671ZM26.7453 27.9671C26.7453 28.9376 25.9558 29.7271 24.9854 29.7271C24.015 29.7271 23.2255 28.9376 23.2255 27.9671C23.2255 26.9967 24.015 26.2072 24.9854 26.2072C25.9558 26.2072 26.7453 26.9967 26.7453 27.9671Z" fill="#858585"/>
</svg>
